<?xml version="1.0" encoding="UTF-8" standalone="no"?>
<!-- Created with Inkscape (http://www.inkscape.org/) -->

<svg
   xmlns:dc="http://purl.org/dc/elements/1.1/"
   xmlns:cc="http://creativecommons.org/ns#"
   xmlns:rdf="http://www.w3.org/1999/02/22-rdf-syntax-ns#"
   xmlns:svg="http://www.w3.org/2000/svg"
   xmlns="http://www.w3.org/2000/svg"
   xmlns:sodipodi="http://sodipodi.sourceforge.net/DTD/sodipodi-0.dtd"
   xmlns:inkscape="http://www.inkscape.org/namespaces/inkscape"
   width="200"
   height="200"
   id="svg2"
   version="1.1"
   inkscape:version="0.48.4 r9939"
   inkscape:export-filename="C:\Users\Laptop02\bitmap.png"
   inkscape:export-xdpi="90"
   inkscape:export-ydpi="90"
   sodipodi:docname="New document 1">
  <defs
     id="defs4" />
  <sodipodi:namedview
     id="base"
     pagecolor="#ffffff"
     bordercolor="#666666"
     borderopacity="1.0"
     inkscape:pageopacity="0.0"
     inkscape:pageshadow="2"
     inkscape:zoom="2"
     inkscape:cx="98.193864"
     inkscape:cy="105.77842"
     inkscape:document-units="px"
     inkscape:current-layer="layer1"
     showgrid="true"
     inkscape:snap-global="true"
     showguides="false"
     inkscape:window-width="1303"
     inkscape:window-height="746"
     inkscape:window-x="55"
     inkscape:window-y="-8"
     inkscape:window-maximized="1">
    <inkscape:grid
       type="xygrid"
       id="grid2985"
       empspacing="4"
       visible="true"
       enabled="true"
       snapvisiblegridlinesonly="true"
       spacingx="10px"
       spacingy="10px" />
  </sodipodi:namedview>
  <metadata
     id="metadata7">
    <rdf:RDF>
      <cc:Work
         rdf:about="">
        <dc:format>image/svg+xml</dc:format>
        <dc:type
           rdf:resource="http://purl.org/dc/dcmitype/StillImage" />
        <dc:title></dc:title>
      </cc:Work>
    </rdf:RDF>
  </metadata>
  <g
     inkscape:label="Layer 1"
     inkscape:groupmode="layer"
     id="layer1"
     transform="translate(0,-852.36218)">
    <g
       id="g3777"
       style="fill:none;fill-opacity:1;stroke:#808080;stroke-opacity:1">
      <path
         transform="translate(0,852.36218)"
         inkscape:connector-curvature="0"
         id="path2987"
         d="m 0,40 200,0"
         style="fill:none;stroke:#808080;stroke-width:1px;stroke-linecap:butt;stroke-linejoin:miter;stroke-opacity:1;fill-opacity:1" />
      <path
         transform="translate(0,852.36218)"
         inkscape:connector-curvature="0"
         id="path2989"
         d="m 0,80 200,0"
         style="fill:none;stroke:#808080;stroke-width:1px;stroke-linecap:butt;stroke-linejoin:miter;stroke-opacity:1;fill-opacity:1" />
      <path
         transform="translate(0,852.36218)"
         inkscape:connector-curvature="0"
         id="path2991"
         d="m 0,120 200,0"
         style="fill:none;stroke:#808080;stroke-width:1px;stroke-linecap:butt;stroke-linejoin:miter;stroke-opacity:1;fill-opacity:1" />
      <path
         transform="translate(0,852.36218)"
         inkscape:connector-curvature="0"
         id="path2993"
         d="m 0,160 200,0"
         style="fill:none;stroke:#808080;stroke-width:1px;stroke-linecap:butt;stroke-linejoin:miter;stroke-opacity:1;fill-opacity:1" />
      <path
         transform="translate(0,852.36218)"
         inkscape:connector-curvature="0"
         id="path2995"
         d="m 40,0 0,200"
         style="fill:none;stroke:#808080;stroke-width:1px;stroke-linecap:butt;stroke-linejoin:miter;stroke-opacity:1;fill-opacity:1" />
      <path
         transform="translate(0,852.36218)"
         inkscape:connector-curvature="0"
         id="path2997"
         d="m 80,0 0,200"
         style="fill:none;stroke:#808080;stroke-width:1px;stroke-linecap:butt;stroke-linejoin:miter;stroke-opacity:1;fill-opacity:1" />
      <path
         transform="translate(0,852.36218)"
         inkscape:connector-curvature="0"
         id="path2999"
         d="m 120,0 0,200"
         style="fill:none;stroke:#808080;stroke-width:1px;stroke-linecap:butt;stroke-linejoin:miter;stroke-opacity:1;fill-opacity:1" />
      <path
         transform="translate(0,852.36218)"
         inkscape:connector-curvature="0"
         id="path3001"
         d="m 160,0 0,200"
         style="fill:none;stroke:#808080;stroke-width:1px;stroke-linecap:butt;stroke-linejoin:miter;stroke-opacity:1;fill-opacity:1" />
    </g>
    <path
       sodipodi:type="arc"
       style="fill:#000000;fill-opacity:1;stroke:#000000;stroke-opacity:1"
       id="path3007"
       sodipodi:cx="45"
       sodipodi:cy="95"
       sodipodi:rx="5"
       sodipodi:ry="5"
       d="m 50,95 a 5,5 0 1 1 -10,0 5,5 0 1 1 10,0 z"
       transform="matrix(0.9090909,0,0,0.9090909,-0.87712791,846.10946)" />
    <path
       sodipodi:type="arc"
       style="fill:#000000;fill-opacity:1;stroke:#000000;stroke-opacity:1"
       id="path3007-4"
       sodipodi:cx="45"
       sodipodi:cy="95"
       sodipodi:rx="5"
       sodipodi:ry="5"
       d="m 50,95 a 5,5 0 1 1 -10,0 5,5 0 1 1 10,0 z"
       transform="matrix(0.9090909,0,0,0.9090909,38.81526,836.51758)" />
    <path
       sodipodi:type="arc"
       style="fill:#000000;fill-opacity:1;stroke:#000000;stroke-opacity:1"
       id="path3007-8"
       sodipodi:cx="45"
       sodipodi:cy="95"
       sodipodi:rx="5"
       sodipodi:ry="5"
       d="m 50,95 a 5,5 0 1 1 -10,0 5,5 0 1 1 10,0 z"
       transform="matrix(0.9090909,0,0,0.9090909,78.671862,845.75895)" />
    <path
       sodipodi:type="arc"
       style="fill:#000000;fill-opacity:1;stroke:#000000;stroke-opacity:1"
       id="path3007-4-6"
       sodipodi:cx="45"
       sodipodi:cy="95"
       sodipodi:rx="5"
       sodipodi:ry="5"
       d="m 50,95 a 5,5 0 1 1 -10,0 5,5 0 1 1 10,0 z"
       transform="matrix(0.9090909,0,0,0.9090909,118.86425,835.91707)" />
    <path
       sodipodi:type="arc"
       style="fill:#000000;fill-opacity:1;stroke:#000000;stroke-opacity:1"
       id="path3007-5"
       sodipodi:cx="45"
       sodipodi:cy="95"
       sodipodi:rx="5"
       sodipodi:ry="5"
       d="m 50,95 a 5,5 0 1 1 -10,0 5,5 0 1 1 10,0 z"
       transform="matrix(0.9090909,0,0,0.9090909,-10.627128,805.85946)" />
    <path
       sodipodi:type="arc"
       style="fill:#000000;fill-opacity:1;stroke:#000000;stroke-opacity:1"
       id="path3007-4-0"
       sodipodi:cx="45"
       sodipodi:cy="95"
       sodipodi:rx="5"
       sodipodi:ry="5"
       d="m 50,95 a 5,5 0 1 1 -10,0 5,5 0 1 1 10,0 z"
       transform="matrix(0.9090909,0,0,0.9090909,29.06526,796.26758)" />
    <path
       sodipodi:type="arc"
       style="fill:#000000;fill-opacity:1;stroke:#000000;stroke-opacity:1"
       id="path3007-8-9"
       sodipodi:cx="45"
       sodipodi:cy="95"
       sodipodi:rx="5"
       sodipodi:ry="5"
       d="m 50,95 a 5,5 0 1 1 -10,0 5,5 0 1 1 10,0 z"
       transform="matrix(0.9090909,0,0,0.9090909,68.92186,805.50895)" />
    <path
       sodipodi:type="arc"
       style="fill:#000000;fill-opacity:1;stroke:#000000;stroke-opacity:1"
       id="path3007-4-6-0"
       sodipodi:cx="45"
       sodipodi:cy="95"
       sodipodi:rx="5"
       sodipodi:ry="5"
       d="m 50,95 a 5,5 0 1 1 -10,0 5,5 0 1 1 10,0 z"
       transform="matrix(0.9090909,0,0,0.9090909,109.11425,795.66707)" />
    <path
       transform="matrix(0.9090909,0,0,0.9090909,149.37287,805.85946)"
       d="m 50,95 a 5,5 0 1 1 -10,0 5,5 0 1 1 10,0 z"
       sodipodi:ry="5"
       sodipodi:rx="5"
       sodipodi:cy="95"
       sodipodi:cx="45"
       id="path3853"
       style="fill:#000000;fill-opacity:1;stroke:#000000;stroke-opacity:1"
       sodipodi:type="arc" />
    <path
       transform="matrix(0.9090909,0,0,0.9090909,-1.2306813,926.36608)"
       d="m 50,95 a 5,5 0 1 1 -10,0 5,5 0 1 1 10,0 z"
       sodipodi:ry="5"
       sodipodi:rx="5"
       sodipodi:cy="95"
       sodipodi:cx="45"
       id="path3855"
       style="fill:#000000;fill-opacity:1;stroke:#000000;stroke-opacity:1"
       sodipodi:type="arc" />
    <path
       transform="matrix(0.9090909,0,0,0.9090909,38.461707,916.7742)"
       d="m 50,95 a 5,5 0 1 1 -10,0 5,5 0 1 1 10,0 z"
       sodipodi:ry="5"
       sodipodi:rx="5"
       sodipodi:cy="95"
       sodipodi:cx="45"
       id="path3857"
       style="fill:#000000;fill-opacity:1;stroke:#000000;stroke-opacity:1"
       sodipodi:type="arc" />
    <path
       transform="matrix(0.9090909,0,0,0.9090909,78.318309,926.01557)"
       d="m 50,95 a 5,5 0 1 1 -10,0 5,5 0 1 1 10,0 z"
       sodipodi:ry="5"
       sodipodi:rx="5"
       sodipodi:cy="95"
       sodipodi:cx="45"
       id="path3859"
       style="fill:#000000;fill-opacity:1;stroke:#000000;stroke-opacity:1"
       sodipodi:type="arc" />
    <path
       transform="matrix(0.9090909,0,0,0.9090909,118.5107,916.17369)"
       d="m 50,95 a 5,5 0 1 1 -10,0 5,5 0 1 1 10,0 z"
       sodipodi:ry="5"
       sodipodi:rx="5"
       sodipodi:cy="95"
       sodipodi:cx="45"
       id="path3861"
       style="fill:#000000;fill-opacity:1;stroke:#000000;stroke-opacity:1"
       sodipodi:type="arc" />
    <path
       transform="matrix(0.9090909,0,0,0.9090909,-10.980681,886.11608)"
       d="m 50,95 a 5,5 0 1 1 -10,0 5,5 0 1 1 10,0 z"
       sodipodi:ry="5"
       sodipodi:rx="5"
       sodipodi:cy="95"
       sodipodi:cx="45"
       id="path3863"
       style="fill:#000000;fill-opacity:1;stroke:#000000;stroke-opacity:1"
       sodipodi:type="arc" />
    <path
       transform="matrix(0.9090909,0,0,0.9090909,28.711707,876.5242)"
       d="m 50,95 a 5,5 0 1 1 -10,0 5,5 0 1 1 10,0 z"
       sodipodi:ry="5"
       sodipodi:rx="5"
       sodipodi:cy="95"
       sodipodi:cx="45"
       id="path3865"
       style="fill:#000000;fill-opacity:1;stroke:#000000;stroke-opacity:1"
       sodipodi:type="arc" />
    <path
       transform="matrix(0.9090909,0,0,0.9090909,68.568307,885.76557)"
       d="m 50,95 a 5,5 0 1 1 -10,0 5,5 0 1 1 10,0 z"
       sodipodi:ry="5"
       sodipodi:rx="5"
       sodipodi:cy="95"
       sodipodi:cx="45"
       id="path3867"
       style="fill:#000000;fill-opacity:1;stroke:#000000;stroke-opacity:1"
       sodipodi:type="arc" />
    <path
       transform="matrix(0.9090909,0,0,0.9090909,108.7607,875.92369)"
       d="m 50,95 a 5,5 0 1 1 -10,0 5,5 0 1 1 10,0 z"
       sodipodi:ry="5"
       sodipodi:rx="5"
       sodipodi:cy="95"
       sodipodi:cx="45"
       id="path3869"
       style="fill:#000000;fill-opacity:1;stroke:#000000;stroke-opacity:1"
       sodipodi:type="arc" />
    <path
       sodipodi:type="arc"
       style="fill:#000000;fill-opacity:1;stroke:#000000;stroke-opacity:1"
       id="path3871"
       sodipodi:cx="45"
       sodipodi:cy="95"
       sodipodi:rx="5"
       sodipodi:ry="5"
       d="m 50,95 a 5,5 0 1 1 -10,0 5,5 0 1 1 10,0 z"
       transform="matrix(0.9090909,0,0,0.9090909,149.01932,886.11608)" />
    <path
       sodipodi:type="arc"
       style="fill:#000000;fill-opacity:1;stroke:#000000;stroke-opacity:1"
       id="path3873"
       sodipodi:cx="45"
       sodipodi:cy="95"
       sodipodi:rx="5"
       sodipodi:ry="5"
       d="m 50,95 a 5,5 0 1 1 -10,0 5,5 0 1 1 10,0 z"
       transform="matrix(0.9090909,0,0,0.9090909,29.711707,956.5242)" />
    <path
       sodipodi:type="arc"
       style="fill:#000000;fill-opacity:1;stroke:#000000;stroke-opacity:1"
       id="path3875"
       sodipodi:cx="45"
       sodipodi:cy="95"
       sodipodi:rx="5"
       sodipodi:ry="5"
       d="m 50,95 a 5,5 0 1 1 -10,0 5,5 0 1 1 10,0 z"
       transform="matrix(0.9090909,0,0,0.9090909,109.7607,955.92369)" />
  </g>
</svg>
